<?xml version="1.0" encoding="UTF-8" standalone="no"?>
<!DOCTYPE svg PUBLIC "-//W3C//DTD SVG 1.1//EN"
 "http://www.w3.org/Graphics/SVG/1.1/DTD/svg11.dtd">
<!-- Generated by graphviz version 2.47.0 (20210316.0004)
 -->
<!-- Title: dependencies Pages: 1 -->
<svg width="504pt" height="211pt"
 viewBox="0.00 0.00 504.00 211.00" xmlns="http://www.w3.org/2000/svg" xmlns:xlink="http://www.w3.org/1999/xlink">
<g id="graph0" class="graph" transform="scale(1 1) rotate(0) translate(4 207)">
<title>dependencies</title>
<polygon fill="white" stroke="transparent" points="-4,4 -4,-207 500,-207 500,4 -4,4"/>
<text text-anchor="start" x="227.01" y="-42.4" font-family="Times-12" font-weight="bold" font-size="14.00">Legend</text>
<polygon fill="#ffffb3" stroke="transparent" points="14,-10 14,-30 34,-30 34,-10 14,-10"/>
<text text-anchor="start" x="37.63" y="-15.4" font-family="Times-12" font-size="14.00"> &#160;Declarations</text>
<polygon fill="#8dd3c7" stroke="transparent" points="127,-10 127,-30 147,-30 147,-10 127,-10"/>
<text text-anchor="start" x="150.73" y="-15.4" font-family="Times-12" font-size="14.00"> &#160;Module</text>
<polygon fill="#80b1d3" stroke="transparent" points="213,-10 213,-30 233,-30 233,-10 213,-10"/>
<text text-anchor="start" x="236.78" y="-15.4" font-family="Times-12" font-size="14.00"> &#160;Bootstrap</text>
<polygon fill="#fdb462" stroke="transparent" points="310,-10 310,-30 330,-30 330,-10 310,-10"/>
<text text-anchor="start" x="333.67" y="-15.4" font-family="Times-12" font-size="14.00"> &#160;Providers</text>
<polygon fill="#fb8072" stroke="transparent" points="406,-10 406,-30 426,-30 426,-10 406,-10"/>
<text text-anchor="start" x="429.73" y="-15.4" font-family="Times-12" font-size="14.00"> &#160;Exports</text>
<g id="clust1" class="cluster">
<title>cluster_UserModule</title>
<polygon fill="none" stroke="black" stroke-dasharray="1,5" points="14,-70 14,-195 482,-195 482,-70 14,-70"/>
</g>
<g id="clust7" class="cluster">
<title>cluster_UserModule_imports</title>
<polygon fill="none" stroke="black" points="326,-78 326,-130 474,-130 474,-78 326,-78"/>
</g>
<g id="clust2" class="cluster">
<title>cluster_UserModule_declarations</title>
<polygon fill="none" stroke="black" points="22,-78 22,-130 318,-130 318,-78 22,-78"/>
</g>
<!-- Uadd -->
<g id="node1" class="node">
<title>Uadd</title>
<polygon fill="#ffffb3" stroke="black" points="310,-122 256,-122 256,-86 310,-86 310,-122"/>
<text text-anchor="middle" x="283" y="-99.8" font-family="Times,serif" font-size="14.00">Uadd</text>
</g>
<!-- UserModule -->
<g id="node5" class="node">
<title>UserModule</title>
<polygon fill="#8dd3c7" stroke="black" points="250.98,-187 247.98,-191 226.98,-191 223.98,-187 165.02,-187 165.02,-151 250.98,-151 250.98,-187"/>
<text text-anchor="middle" x="208" y="-164.8" font-family="Times,serif" font-size="14.00">UserModule</text>
</g>
<!-- Uadd&#45;&gt;UserModule -->
<g id="edge1" class="edge">
<title>Uadd&#45;&gt;UserModule</title>
<path fill="none" stroke="black" d="M255.76,-104C249.37,-104 244.38,-104 244.38,-104 244.38,-104 244.38,-140.89 244.38,-140.89"/>
<polygon fill="black" stroke="black" points="240.88,-140.89 244.38,-150.89 247.88,-140.89 240.88,-140.89"/>
</g>
<!-- Udelete -->
<g id="node2" class="node">
<title>Udelete</title>
<polygon fill="#ffffb3" stroke="black" points="237.53,-122 178.47,-122 178.47,-86 237.53,-86 237.53,-122"/>
<text text-anchor="middle" x="208" y="-99.8" font-family="Times,serif" font-size="14.00">Udelete</text>
</g>
<!-- Udelete&#45;&gt;UserModule -->
<g id="edge2" class="edge">
<title>Udelete&#45;&gt;UserModule</title>
<path fill="none" stroke="black" d="M208,-122.11C208,-122.11 208,-140.99 208,-140.99"/>
<polygon fill="black" stroke="black" points="204.5,-140.99 208,-150.99 211.5,-140.99 204.5,-140.99"/>
</g>
<!-- Uedit -->
<g id="node3" class="node">
<title>Uedit</title>
<polygon fill="#ffffb3" stroke="black" points="160,-122 106,-122 106,-86 160,-86 160,-122"/>
<text text-anchor="middle" x="133" y="-99.8" font-family="Times,serif" font-size="14.00">Uedit</text>
</g>
<!-- Uedit&#45;&gt;UserModule -->
<g id="edge3" class="edge">
<title>Uedit&#45;&gt;UserModule</title>
<path fill="none" stroke="black" d="M160.24,-104C166.63,-104 171.62,-104 171.62,-104 171.62,-104 171.62,-140.89 171.62,-140.89"/>
<polygon fill="black" stroke="black" points="168.12,-140.89 171.62,-150.89 175.12,-140.89 168.12,-140.89"/>
</g>
<!-- Uindex -->
<g id="node4" class="node">
<title>Uindex</title>
<polygon fill="#ffffb3" stroke="black" points="87.71,-122 30.29,-122 30.29,-86 87.71,-86 87.71,-122"/>
<text text-anchor="middle" x="59" y="-99.8" font-family="Times,serif" font-size="14.00">Uindex</text>
</g>
<!-- Uindex&#45;&gt;UserModule -->
<g id="edge4" class="edge">
<title>Uindex&#45;&gt;UserModule</title>
<path fill="none" stroke="black" d="M59,-122.11C59,-141.34 59,-169 59,-169 59,-169 154.9,-169 154.9,-169"/>
<polygon fill="black" stroke="black" points="154.9,-172.5 164.9,-169 154.9,-165.5 154.9,-172.5"/>
</g>
<!-- UserRoutingModule -->
<g id="node6" class="node">
<title>UserRoutingModule</title>
<polygon fill="#8dd3c7" stroke="black" points="465.59,-122 462.59,-126 441.59,-126 438.59,-122 334.41,-122 334.41,-86 465.59,-86 465.59,-122"/>
<text text-anchor="middle" x="400" y="-99.8" font-family="Times,serif" font-size="14.00">UserRoutingModule</text>
</g>
<!-- UserRoutingModule&#45;&gt;UserModule -->
<g id="edge5" class="edge">
<title>UserRoutingModule&#45;&gt;UserModule</title>
<path fill="none" stroke="black" d="M400,-122.11C400,-141.34 400,-169 400,-169 400,-169 261.09,-169 261.09,-169"/>
<polygon fill="black" stroke="black" points="261.09,-165.5 251.09,-169 261.09,-172.5 261.09,-165.5"/>
</g>
</g>
</svg>
