<?xml version="1.0" encoding="UTF-8" standalone="no"?>
<!DOCTYPE svg PUBLIC "-//W3C//DTD SVG 1.1//EN"
 "http://www.w3.org/Graphics/SVG/1.1/DTD/svg11.dtd">
<!-- Generated by graphviz version 2.47.0 (20210316.0004)
 -->
<!-- Title: dependencies Pages: 1 -->
<svg width="508pt" height="211pt"
 viewBox="0.00 0.00 508.00 211.00" xmlns="http://www.w3.org/2000/svg" xmlns:xlink="http://www.w3.org/1999/xlink">
<g id="graph0" class="graph" transform="scale(1 1) rotate(0) translate(4 207)">
<title>dependencies</title>
<polygon fill="white" stroke="transparent" points="-4,4 -4,-207 504,-207 504,4 -4,4"/>
<text text-anchor="start" x="229.01" y="-42.4" font-family="Times-12" font-weight="bold" font-size="14.00">Legend</text>
<polygon fill="#ffffb3" stroke="transparent" points="16,-10 16,-30 36,-30 36,-10 16,-10"/>
<text text-anchor="start" x="39.63" y="-15.4" font-family="Times-12" font-size="14.00"> &#160;Declarations</text>
<polygon fill="#8dd3c7" stroke="transparent" points="129,-10 129,-30 149,-30 149,-10 129,-10"/>
<text text-anchor="start" x="152.73" y="-15.4" font-family="Times-12" font-size="14.00"> &#160;Module</text>
<polygon fill="#80b1d3" stroke="transparent" points="215,-10 215,-30 235,-30 235,-10 215,-10"/>
<text text-anchor="start" x="238.78" y="-15.4" font-family="Times-12" font-size="14.00"> &#160;Bootstrap</text>
<polygon fill="#fdb462" stroke="transparent" points="312,-10 312,-30 332,-30 332,-10 312,-10"/>
<text text-anchor="start" x="335.67" y="-15.4" font-family="Times-12" font-size="14.00"> &#160;Providers</text>
<polygon fill="#fb8072" stroke="transparent" points="408,-10 408,-30 428,-30 428,-10 408,-10"/>
<text text-anchor="start" x="431.73" y="-15.4" font-family="Times-12" font-size="14.00"> &#160;Exports</text>
<g id="clust1" class="cluster">
<title>cluster_CocktailModule</title>
<polygon fill="none" stroke="black" stroke-dasharray="1,5" points="8,-70 8,-195 492,-195 492,-70 8,-70"/>
</g>
<g id="clust2" class="cluster">
<title>cluster_CocktailModule_declarations</title>
<polygon fill="none" stroke="black" points="192,-78 192,-130 484,-130 484,-78 192,-78"/>
</g>
<g id="clust7" class="cluster">
<title>cluster_CocktailModule_imports</title>
<polygon fill="none" stroke="black" points="16,-78 16,-130 184,-130 184,-78 16,-78"/>
</g>
<!-- Cadd -->
<g id="node1" class="node">
<title>Cadd</title>
<polygon fill="#ffffb3" stroke="black" points="476,-122 422,-122 422,-86 476,-86 476,-122"/>
<text text-anchor="middle" x="449" y="-99.8" font-family="Times,serif" font-size="14.00">Cadd</text>
</g>
<!-- CocktailModule -->
<g id="node5" class="node">
<title>CocktailModule</title>
<polygon fill="#8dd3c7" stroke="black" points="354.49,-187 351.49,-191 330.49,-191 327.49,-187 247.51,-187 247.51,-151 354.49,-151 354.49,-187"/>
<text text-anchor="middle" x="301" y="-164.8" font-family="Times,serif" font-size="14.00">CocktailModule</text>
</g>
<!-- Cadd&#45;&gt;CocktailModule -->
<g id="edge1" class="edge">
<title>Cadd&#45;&gt;CocktailModule</title>
<path fill="none" stroke="black" d="M449,-122.11C449,-141.34 449,-169 449,-169 449,-169 364.85,-169 364.85,-169"/>
<polygon fill="black" stroke="black" points="364.85,-165.5 354.85,-169 364.85,-172.5 364.85,-165.5"/>
</g>
<!-- Cdelete -->
<g id="node2" class="node">
<title>Cdelete</title>
<polygon fill="#ffffb3" stroke="black" points="404.26,-122 345.74,-122 345.74,-86 404.26,-86 404.26,-122"/>
<text text-anchor="middle" x="375" y="-99.8" font-family="Times,serif" font-size="14.00">Cdelete</text>
</g>
<!-- Cdelete&#45;&gt;CocktailModule -->
<g id="edge2" class="edge">
<title>Cdelete&#45;&gt;CocktailModule</title>
<path fill="none" stroke="black" d="M350.06,-122.11C350.06,-122.11 350.06,-140.99 350.06,-140.99"/>
<polygon fill="black" stroke="black" points="346.56,-140.99 350.06,-150.99 353.56,-140.99 346.56,-140.99"/>
</g>
<!-- Cedit -->
<g id="node3" class="node">
<title>Cedit</title>
<polygon fill="#ffffb3" stroke="black" points="328,-122 274,-122 274,-86 328,-86 328,-122"/>
<text text-anchor="middle" x="301" y="-99.8" font-family="Times,serif" font-size="14.00">Cedit</text>
</g>
<!-- Cedit&#45;&gt;CocktailModule -->
<g id="edge3" class="edge">
<title>Cedit&#45;&gt;CocktailModule</title>
<path fill="none" stroke="black" d="M301,-122.11C301,-122.11 301,-140.99 301,-140.99"/>
<polygon fill="black" stroke="black" points="297.5,-140.99 301,-150.99 304.5,-140.99 297.5,-140.99"/>
</g>
<!-- Cindex -->
<g id="node4" class="node">
<title>Cindex</title>
<polygon fill="#ffffb3" stroke="black" points="256.44,-122 199.56,-122 199.56,-86 256.44,-86 256.44,-122"/>
<text text-anchor="middle" x="228" y="-99.8" font-family="Times,serif" font-size="14.00">Cindex</text>
</g>
<!-- Cindex&#45;&gt;CocktailModule -->
<g id="edge4" class="edge">
<title>Cindex&#45;&gt;CocktailModule</title>
<path fill="none" stroke="black" d="M251.86,-122.11C251.86,-122.11 251.86,-140.99 251.86,-140.99"/>
<polygon fill="black" stroke="black" points="248.36,-140.99 251.86,-150.99 255.36,-140.99 248.36,-140.99"/>
</g>
<!-- CocktailRoutingModule -->
<g id="node6" class="node">
<title>CocktailRoutingModule</title>
<polygon fill="#8dd3c7" stroke="black" points="176.11,-122 173.11,-126 152.11,-126 149.11,-122 23.89,-122 23.89,-86 176.11,-86 176.11,-122"/>
<text text-anchor="middle" x="100" y="-99.8" font-family="Times,serif" font-size="14.00">CocktailRoutingModule</text>
</g>
<!-- CocktailRoutingModule&#45;&gt;CocktailModule -->
<g id="edge5" class="edge">
<title>CocktailRoutingModule&#45;&gt;CocktailModule</title>
<path fill="none" stroke="black" d="M100,-122.11C100,-141.34 100,-169 100,-169 100,-169 237.4,-169 237.4,-169"/>
<polygon fill="black" stroke="black" points="237.4,-172.5 247.4,-169 237.4,-165.5 237.4,-172.5"/>
</g>
</g>
</svg>
