<?xml version="1.0" encoding="UTF-8" standalone="no"?>
<!DOCTYPE svg PUBLIC "-//W3C//DTD SVG 1.1//EN"
 "http://www.w3.org/Graphics/SVG/1.1/DTD/svg11.dtd">
<!-- Generated by graphviz version 2.47.0 (20210316.0004)
 -->
<!-- Title: dependencies Pages: 1 -->
<svg width="551pt" height="211pt"
 viewBox="0.00 0.00 551.00 211.00" xmlns="http://www.w3.org/2000/svg" xmlns:xlink="http://www.w3.org/1999/xlink">
<g id="graph0" class="graph" transform="scale(1 1) rotate(0) translate(4 207)">
<title>dependencies</title>
<polygon fill="white" stroke="transparent" points="-4,4 -4,-207 547,-207 547,4 -4,4"/>
<text text-anchor="start" x="250.51" y="-42.4" font-family="Times-12" font-weight="bold" font-size="14.00">Legend</text>
<polygon fill="#ffffb3" stroke="transparent" points="37.5,-10 37.5,-30 57.5,-30 57.5,-10 37.5,-10"/>
<text text-anchor="start" x="61.13" y="-15.4" font-family="Times-12" font-size="14.00"> &#160;Declarations</text>
<polygon fill="#8dd3c7" stroke="transparent" points="150.5,-10 150.5,-30 170.5,-30 170.5,-10 150.5,-10"/>
<text text-anchor="start" x="174.23" y="-15.4" font-family="Times-12" font-size="14.00"> &#160;Module</text>
<polygon fill="#80b1d3" stroke="transparent" points="236.5,-10 236.5,-30 256.5,-30 256.5,-10 236.5,-10"/>
<text text-anchor="start" x="260.28" y="-15.4" font-family="Times-12" font-size="14.00"> &#160;Bootstrap</text>
<polygon fill="#fdb462" stroke="transparent" points="333.5,-10 333.5,-30 353.5,-30 353.5,-10 333.5,-10"/>
<text text-anchor="start" x="357.17" y="-15.4" font-family="Times-12" font-size="14.00"> &#160;Providers</text>
<polygon fill="#fb8072" stroke="transparent" points="429.5,-10 429.5,-30 449.5,-30 449.5,-10 429.5,-10"/>
<text text-anchor="start" x="453.23" y="-15.4" font-family="Times-12" font-size="14.00"> &#160;Exports</text>
<g id="clust1" class="cluster">
<title>cluster_AdminModule</title>
<polygon fill="none" stroke="black" stroke-dasharray="1,5" points="8,-70 8,-195 535,-195 535,-70 8,-70"/>
</g>
<g id="clust2" class="cluster">
<title>cluster_AdminModule_declarations</title>
<polygon fill="none" stroke="black" points="184,-78 184,-130 527,-130 527,-78 184,-78"/>
</g>
<g id="clust7" class="cluster">
<title>cluster_AdminModule_imports</title>
<polygon fill="none" stroke="black" points="16,-78 16,-130 176,-130 176,-78 16,-78"/>
</g>
<!-- Aheader -->
<g id="node1" class="node">
<title>Aheader</title>
<polygon fill="#ffffb3" stroke="black" points="518.91,-122 455.09,-122 455.09,-86 518.91,-86 518.91,-122"/>
<text text-anchor="middle" x="487" y="-99.8" font-family="Times,serif" font-size="14.00">Aheader</text>
</g>
<!-- AdminModule -->
<g id="node5" class="node">
<title>AdminModule</title>
<polygon fill="#8dd3c7" stroke="black" points="369.44,-187 366.44,-191 345.44,-191 342.44,-187 270.56,-187 270.56,-151 369.44,-151 369.44,-187"/>
<text text-anchor="middle" x="320" y="-164.8" font-family="Times,serif" font-size="14.00">AdminModule</text>
</g>
<!-- Aheader&#45;&gt;AdminModule -->
<g id="edge1" class="edge">
<title>Aheader&#45;&gt;AdminModule</title>
<path fill="none" stroke="black" d="M487,-122.11C487,-141.34 487,-169 487,-169 487,-169 379.65,-169 379.65,-169"/>
<polygon fill="black" stroke="black" points="379.65,-165.5 369.65,-169 379.65,-172.5 379.65,-165.5"/>
</g>
<!-- Alayout -->
<g id="node2" class="node">
<title>Alayout</title>
<polygon fill="#ffffb3" stroke="black" points="437.6,-122 376.4,-122 376.4,-86 437.6,-86 437.6,-122"/>
<text text-anchor="middle" x="407" y="-99.8" font-family="Times,serif" font-size="14.00">Alayout</text>
</g>
<!-- Alayout&#45;&gt;AdminModule -->
<g id="edge2" class="edge">
<title>Alayout&#45;&gt;AdminModule</title>
<path fill="none" stroke="black" d="M376.04,-104C369.11,-104 363.77,-104 363.77,-104 363.77,-104 363.77,-140.89 363.77,-140.89"/>
<polygon fill="black" stroke="black" points="360.27,-140.89 363.77,-150.89 367.27,-140.89 360.27,-140.89"/>
</g>
<!-- Dashboard -->
<g id="node3" class="node">
<title>Dashboard</title>
<polygon fill="#ffffb3" stroke="black" points="358.14,-122 281.86,-122 281.86,-86 358.14,-86 358.14,-122"/>
<text text-anchor="middle" x="320" y="-99.8" font-family="Times,serif" font-size="14.00">Dashboard</text>
</g>
<!-- Dashboard&#45;&gt;AdminModule -->
<g id="edge3" class="edge">
<title>Dashboard&#45;&gt;AdminModule</title>
<path fill="none" stroke="black" d="M320,-122.11C320,-122.11 320,-140.99 320,-140.99"/>
<polygon fill="black" stroke="black" points="316.5,-140.99 320,-150.99 323.5,-140.99 316.5,-140.99"/>
</g>
<!-- Sidemenu -->
<g id="node4" class="node">
<title>Sidemenu</title>
<polygon fill="#ffffb3" stroke="black" points="263.99,-122 192.01,-122 192.01,-86 263.99,-86 263.99,-122"/>
<text text-anchor="middle" x="228" y="-99.8" font-family="Times,serif" font-size="14.00">Sidemenu</text>
</g>
<!-- Sidemenu&#45;&gt;AdminModule -->
<g id="edge4" class="edge">
<title>Sidemenu&#45;&gt;AdminModule</title>
<path fill="none" stroke="black" d="M264.06,-104C271.04,-104 276.23,-104 276.23,-104 276.23,-104 276.23,-140.89 276.23,-140.89"/>
<polygon fill="black" stroke="black" points="272.73,-140.89 276.23,-150.89 279.73,-140.89 272.73,-140.89"/>
</g>
<!-- AdminRoutingModule -->
<g id="node6" class="node">
<title>AdminRoutingModule</title>
<polygon fill="#8dd3c7" stroke="black" points="167.56,-122 164.56,-126 143.56,-126 140.56,-122 24.44,-122 24.44,-86 167.56,-86 167.56,-122"/>
<text text-anchor="middle" x="96" y="-99.8" font-family="Times,serif" font-size="14.00">AdminRoutingModule</text>
</g>
<!-- AdminRoutingModule&#45;&gt;AdminModule -->
<g id="edge5" class="edge">
<title>AdminRoutingModule&#45;&gt;AdminModule</title>
<path fill="none" stroke="black" d="M96,-122.11C96,-141.34 96,-169 96,-169 96,-169 260.56,-169 260.56,-169"/>
<polygon fill="black" stroke="black" points="260.56,-172.5 270.56,-169 260.56,-165.5 260.56,-172.5"/>
</g>
</g>
</svg>
