<?xml version="1.0" encoding="UTF-8" standalone="no"?>
<!DOCTYPE svg PUBLIC "-//W3C//DTD SVG 1.1//EN"
 "http://www.w3.org/Graphics/SVG/1.1/DTD/svg11.dtd">
<!-- Generated by graphviz version 2.47.0 (20210316.0004)
 -->
<!-- Title: dependencies Pages: 1 -->
<svg width="589pt" height="211pt"
 viewBox="0.00 0.00 589.00 211.00" xmlns="http://www.w3.org/2000/svg" xmlns:xlink="http://www.w3.org/1999/xlink">
<g id="graph0" class="graph" transform="scale(1 1) rotate(0) translate(4 207)">
<title>dependencies</title>
<polygon fill="white" stroke="transparent" points="-4,4 -4,-207 585,-207 585,4 -4,4"/>
<text text-anchor="start" x="269.51" y="-42.4" font-family="Times-12" font-weight="bold" font-size="14.00">Legend</text>
<polygon fill="#ffffb3" stroke="transparent" points="56.5,-10 56.5,-30 76.5,-30 76.5,-10 56.5,-10"/>
<text text-anchor="start" x="80.13" y="-15.4" font-family="Times-12" font-size="14.00"> &#160;Declarations</text>
<polygon fill="#8dd3c7" stroke="transparent" points="169.5,-10 169.5,-30 189.5,-30 189.5,-10 169.5,-10"/>
<text text-anchor="start" x="193.23" y="-15.4" font-family="Times-12" font-size="14.00"> &#160;Module</text>
<polygon fill="#80b1d3" stroke="transparent" points="255.5,-10 255.5,-30 275.5,-30 275.5,-10 255.5,-10"/>
<text text-anchor="start" x="279.28" y="-15.4" font-family="Times-12" font-size="14.00"> &#160;Bootstrap</text>
<polygon fill="#fdb462" stroke="transparent" points="352.5,-10 352.5,-30 372.5,-30 372.5,-10 352.5,-10"/>
<text text-anchor="start" x="376.17" y="-15.4" font-family="Times-12" font-size="14.00"> &#160;Providers</text>
<polygon fill="#fb8072" stroke="transparent" points="448.5,-10 448.5,-30 468.5,-30 468.5,-10 448.5,-10"/>
<text text-anchor="start" x="472.23" y="-15.4" font-family="Times-12" font-size="14.00"> &#160;Exports</text>
<g id="clust1" class="cluster">
<title>cluster_PublicModule</title>
<polygon fill="none" stroke="black" stroke-dasharray="1,5" points="8,-70 8,-195 573,-195 573,-70 8,-70"/>
</g>
<g id="clust8" class="cluster">
<title>cluster_PublicModule_imports</title>
<polygon fill="none" stroke="black" points="409,-78 409,-130 565,-130 565,-78 409,-78"/>
</g>
<g id="clust2" class="cluster">
<title>cluster_PublicModule_declarations</title>
<polygon fill="none" stroke="black" points="16,-78 16,-130 401,-130 401,-78 16,-78"/>
</g>
<!-- Cocktail -->
<g id="node1" class="node">
<title>Cocktail</title>
<polygon fill="#ffffb3" stroke="black" points="392.94,-122 329.06,-122 329.06,-86 392.94,-86 392.94,-122"/>
<text text-anchor="middle" x="361" y="-99.8" font-family="Times,serif" font-size="14.00">Cocktail</text>
</g>
<!-- PublicModule -->
<g id="node6" class="node">
<title>PublicModule</title>
<polygon fill="#8dd3c7" stroke="black" points="291.83,-187 288.83,-191 267.83,-191 264.83,-187 196.17,-187 196.17,-151 291.83,-151 291.83,-187"/>
<text text-anchor="middle" x="244" y="-164.8" font-family="Times,serif" font-size="14.00">PublicModule</text>
</g>
<!-- Cocktail&#45;&gt;PublicModule -->
<g id="edge1" class="edge">
<title>Cocktail&#45;&gt;PublicModule</title>
<path fill="none" stroke="black" d="M361,-122.02C361,-139.37 361,-163 361,-163 361,-163 301.93,-163 301.93,-163"/>
<polygon fill="black" stroke="black" points="301.93,-159.5 291.93,-163 301.93,-166.5 301.93,-159.5"/>
</g>
<!-- Contact -->
<g id="node2" class="node">
<title>Contact</title>
<polygon fill="#ffffb3" stroke="black" points="311.55,-122 252.45,-122 252.45,-86 311.55,-86 311.55,-122"/>
<text text-anchor="middle" x="282" y="-99.8" font-family="Times,serif" font-size="14.00">Contact</text>
</g>
<!-- Contact&#45;&gt;PublicModule -->
<g id="edge2" class="edge">
<title>Contact&#45;&gt;PublicModule</title>
<path fill="none" stroke="black" d="M271.95,-122.11C271.95,-122.11 271.95,-140.99 271.95,-140.99"/>
<polygon fill="black" stroke="black" points="268.45,-140.99 271.95,-150.99 275.45,-140.99 268.45,-140.99"/>
</g>
<!-- Home -->
<g id="node3" class="node">
<title>Home</title>
<polygon fill="#ffffb3" stroke="black" points="234,-122 180,-122 180,-86 234,-86 234,-122"/>
<text text-anchor="middle" x="207" y="-99.8" font-family="Times,serif" font-size="14.00">Home</text>
</g>
<!-- Home&#45;&gt;PublicModule -->
<g id="edge3" class="edge">
<title>Home&#45;&gt;PublicModule</title>
<path fill="none" stroke="black" d="M215.17,-122.11C215.17,-122.11 215.17,-140.99 215.17,-140.99"/>
<polygon fill="black" stroke="black" points="211.67,-140.99 215.17,-150.99 218.67,-140.99 211.67,-140.99"/>
</g>
<!-- Pheader -->
<g id="node4" class="node">
<title>Pheader</title>
<polygon fill="#ffffb3" stroke="black" points="161.59,-122 100.41,-122 100.41,-86 161.59,-86 161.59,-122"/>
<text text-anchor="middle" x="131" y="-99.8" font-family="Times,serif" font-size="14.00">Pheader</text>
</g>
<!-- Pheader&#45;&gt;PublicModule -->
<g id="edge4" class="edge">
<title>Pheader&#45;&gt;PublicModule</title>
<path fill="none" stroke="black" d="M131,-122.02C131,-139.37 131,-163 131,-163 131,-163 186.08,-163 186.08,-163"/>
<polygon fill="black" stroke="black" points="186.08,-166.5 196.08,-163 186.08,-159.5 186.08,-166.5"/>
</g>
<!-- Playout -->
<g id="node5" class="node">
<title>Playout</title>
<polygon fill="#ffffb3" stroke="black" points="82.28,-122 23.72,-122 23.72,-86 82.28,-86 82.28,-122"/>
<text text-anchor="middle" x="53" y="-99.8" font-family="Times,serif" font-size="14.00">Playout</text>
</g>
<!-- Playout&#45;&gt;PublicModule -->
<g id="edge5" class="edge">
<title>Playout&#45;&gt;PublicModule</title>
<path fill="none" stroke="black" d="M53,-122.28C53,-143.32 53,-175 53,-175 53,-175 186.3,-175 186.3,-175"/>
<polygon fill="black" stroke="black" points="186.3,-178.5 196.3,-175 186.3,-171.5 186.3,-178.5"/>
</g>
<!-- PublicRoutingModule -->
<g id="node7" class="node">
<title>PublicRoutingModule</title>
<polygon fill="#8dd3c7" stroke="black" points="557.45,-122 554.45,-126 533.45,-126 530.45,-122 416.55,-122 416.55,-86 557.45,-86 557.45,-122"/>
<text text-anchor="middle" x="487" y="-99.8" font-family="Times,serif" font-size="14.00">PublicRoutingModule</text>
</g>
<!-- PublicRoutingModule&#45;&gt;PublicModule -->
<g id="edge6" class="edge">
<title>PublicRoutingModule&#45;&gt;PublicModule</title>
<path fill="none" stroke="black" d="M487,-122.28C487,-143.32 487,-175 487,-175 487,-175 301.72,-175 301.72,-175"/>
<polygon fill="black" stroke="black" points="301.72,-171.5 291.72,-175 301.72,-178.5 301.72,-171.5"/>
</g>
</g>
</svg>
